<?xml version="1.0" encoding="UTF-8" standalone="no"?>
<!-- Created with Inkscape (http://www.inkscape.org/) -->

<svg
   width="3840"
   height="2160"
   viewBox="0 0 3840 2160"
   version="1.1"
   id="svg1"
   inkscape:version="1.3.2 (091e20e, 2023-11-25, custom)"
   sodipodi:docname="drawing.svg"
   xmlns:inkscape="http://www.inkscape.org/namespaces/inkscape"
   xmlns:sodipodi="http://sodipodi.sourceforge.net/DTD/sodipodi-0.dtd"
   xmlns="http://www.w3.org/2000/svg"
   xmlns:svg="http://www.w3.org/2000/svg">
  <sodipodi:namedview
     id="namedview1"
     pagecolor="#505050"
     bordercolor="#ffffff"
     borderopacity="1"
     inkscape:showpageshadow="0"
     inkscape:pageopacity="0"
     inkscape:pagecheckerboard="1"
     inkscape:deskcolor="#505050"
     inkscape:document-units="px"
     inkscape:zoom="0.25"
     inkscape:cx="1714"
     inkscape:cy="822"
     inkscape:window-width="1920"
     inkscape:window-height="1009"
     inkscape:window-x="-8"
     inkscape:window-y="-8"
     inkscape:window-maximized="1"
     inkscape:current-layer="layer1" />
  <defs
     id="defs1" />
  <g
     inkscape:label="Layer 1"
     inkscape:groupmode="layer"
     id="layer1">
    <path
       style="fill:#800080"
       d="m 534.10853,-0.22696415 c 0,0 251.80014,-2.99431185 282.56055,391.06914415 34.74713,445.13648 332.87942,623.18132 332.87942,623.18132 0,0 333.3406,113.1508 479.9657,658.0176 106.1089,394.3065 538.073,487.9945 538.073,487.9945 L 0.01352121,2159.998 0.00386768,0.00660437 Z"
       id="path1"
       inkscape:transform-center-x="-38.706915"
       inkscape:transform-center-y="19.353459"
       sodipodi:nodetypes="cscscccc" />
    <path
       style="fill:#800080"
       d="m 3284.6939,2159.9818 c 0,0 -241.9471,-51.0891 -273.7944,-383.2227 -42.6172,-444.4521 -331.4347,-623.9509 -331.4347,-623.9509 0,0 -333.0776,-113.9228 -478.44,-659.12781 C 2095.8298,99.129118 1664.0839,4.4405897 1664.0839,4.4405897 l 2175.9164,-4.43723562 0,2159.99494592 z"
       id="path1-1"
       inkscape:transform-center-x="36.164535"
       inkscape:transform-center-y="-19.560031"
       sodipodi:nodetypes="cscscccc" />
  </g>
</svg>
