<?xml version="1.0" encoding="UTF-8" standalone="no"?>
<!-- Created with Inkscape (http://www.inkscape.org/) -->

<svg
   width="512"
   height="512"
   viewBox="0 0 512 512"
   version="1.1"
   id="svg1"
   inkscape:version="1.3.2 (091e20e, 2023-11-25, custom)"
   sodipodi:docname="logo.svg"
   xmlns:inkscape="http://www.inkscape.org/namespaces/inkscape"
   xmlns:sodipodi="http://sodipodi.sourceforge.net/DTD/sodipodi-0.dtd"
   xmlns="http://www.w3.org/2000/svg"
   xmlns:svg="http://www.w3.org/2000/svg">
  <sodipodi:namedview
     id="namedview1"
     pagecolor="#505050"
     bordercolor="#ffffff"
     borderopacity="1"
     inkscape:showpageshadow="0"
     inkscape:pageopacity="0"
     inkscape:pagecheckerboard="1"
     inkscape:deskcolor="#505050"
     inkscape:document-units="px"
     inkscape:zoom="1.4142136"
     inkscape:cx="198.69701"
     inkscape:cy="297.3384"
     inkscape:window-width="1920"
     inkscape:window-height="1009"
     inkscape:window-x="-8"
     inkscape:window-y="-8"
     inkscape:window-maximized="1"
     inkscape:current-layer="layer1" />
  <defs
     id="defs1">
    <linearGradient
       id="swatch4"
       inkscape:swatch="solid">
      <stop
         style="stop-color:#000000;stop-opacity:0;"
         offset="0"
         id="stop4" />
    </linearGradient>
  </defs>
  <g
     inkscape:label="Layer 1"
     inkscape:groupmode="layer"
     id="layer1">
    <g
       transform="matrix(0.34967668,0,0,0.34950222,49.882132,134.80946)"
       id="g3">
      <text
         font-family="'(Book+Ends)', '(Book+Ends)_MSFontService', sans-serif"
         font-weight="400"
         font-size="551px"
         transform="translate(9.6,534)"
         id="text1">(</text>
      <path
         id="text2"
         transform="translate(92.6,534)"
         d="m 97.114027,-374.40608 c -1.010166,0.18367 -1.974965,0.64565 -2.893298,1.38032 -0.734666,0.36733 -3.491236,2.38439 -8.266565,6.05772 l -16.527544,13.77517 c -6.244661,5.14266 -13.040477,10.65288 -20.387137,16.53021 -6.979326,5.87732 -13.58951,11.57345 -19.83417,17.08344 -6.244661,5.14267 -11.572168,9.73451 -15.980164,13.77518 -4.0406627,4.04066 -6.2459191,6.42954 -6.613252,7.1642 -0.367333,0.73467 -0.5529662,5.50684 -0.5529662,14.32283 0,8.44866 -0.1800477,19.655 -0.5473807,33.61365 v 47.38324 53.44655 c 0.367333,17.99932 0.5473807,35.81457 0.5473807,53.446549 0.367333,17.264649 0.5529662,32.876931 0.5529662,46.835584 0.3673329,13.59132 0.7330138,24.797663 1.1003468,33.613654 0.367333,8.4486586 0.7385994,13.0405063 1.1059323,13.7751722 0.367333,0.734666 2.9382699,1.28680534 7.7135989,1.6541383 5.142661,0.36733297 11.201531,0.5476538929 18.180857,0.5476538929 H 57.306048 C 65.754706,-0.36815157 73.467518,-0.73438172 80.446845,-1.1017147 c 6.979326,-0.367333 13.038196,-0.7335631 18.180857,-1.1008961 5.142658,-0.3673329 8.084868,-0.5532422 8.819528,-0.5532422 0.73467,0 2.75429,-1.836739 6.06029,-5.5100687 l 10.9141,-10.9139593 c 0.035,0.88317 0.0711,2.362264 0.10612,3.202098 0.36734,8.4486586 0.73302,13.0405063 1.10035,13.7751722 0.36733,0.734666 2.93827,1.28680534 7.7136,1.6541383 5.14266,0.36733297 11.20153,0.5476538929 18.18086,0.5476538929 h 22.59341 c 8.44866,-0.3673329629 16.16147,-0.7335631129 23.1408,-1.1008960929 6.97933,-0.367333 13.04378,-0.7335631 18.18644,-1.1008961 5.14266,-0.3673329 8.07928,-0.5532422 8.81395,-0.5532422 0.73466,0 2.75429,-1.836739 6.06028,-5.5100687 l 10.9141,-10.9139593 c 0.035,0.883175 0.0711,2.36226 0.10613,3.202098 0.36733,8.4486586 0.73301,13.0405063 1.10035,13.7751722 0.36733,0.734666 2.93827,1.28680534 7.71359,1.6541383 5.14267,0.36733297 11.20712,0.5476538929 18.18645,0.5476538929 h 22.58783 C 299.37454,-0.36815157 307.09293,-0.73438172 314.07226,-1.1017147 c 6.97933,-0.367333 13.0382,-0.7335631 18.18086,-1.1008961 5.14266,-0.3673329 8.07928,-0.5532422 8.81394,-0.5532422 0.73467,0 2.75429,-1.836739 6.06029,-5.5100687 l 10.9141,-10.9139593 c 0.035,0.883175 0.0711,2.36226 0.10612,3.202098 0.36734,8.4486586 0.7386,13.0405063 1.10594,13.7751722 0.36733,0.734666 2.93827,1.28680534 7.71359,1.6541383 5.14267,0.36733297 11.20154,0.5476538929 18.18086,0.5476538929 h 22.59342 C 416.19004,-0.36815157 423.90285,-0.73438172 430.88217,-1.1017147 c 6.97933,-0.367333 13.0382,-0.7335631 18.18086,-1.1008961 5.14266,-0.3673329 8.08487,-0.5532422 8.81953,-0.5532422 0.73467,0 2.75429,-1.836739 6.06029,-5.5100687 l 10.9141,-10.9139593 c 0.035,0.88317 0.0711,2.362264 0.10612,3.202098 0.36734,8.4486586 0.73302,13.0405063 1.10035,13.7751722 0.36733,0.734666 2.93827,1.28680534 7.7136,1.6541383 5.14266,0.36733297 11.20712,0.5476538929 18.18644,0.5476538929 h 22.58783 c 8.44866,-0.3673329629 16.16147,-0.7335631129 23.1408,-1.1008960929 6.97932,-0.367333 13.04378,-0.7335631 18.18644,-1.1008961 5.14266,-0.3673329 8.07928,-0.5532422 8.81395,-0.5532422 0.73466,0 2.75429,-1.836739 6.06028,-5.5100687 l 10.9141,-10.9139593 c 0.035,0.883175 0.0711,2.36226 0.10613,3.202098 0.36733,8.4486586 0.73301,13.0405063 1.10034,13.7751722 0.36734,0.734666 3.12391,1.28680534 8.26657,1.6541383 5.14266,0.36733297 11.38716,0.5476538929 18.73382,0.5476538929 h 24.24673 C 652.93644,-0.36815157 661.01494,-0.73438172 668.3616,-1.1017147 c 7.71399,-0.367333 14.14412,-0.7335631 19.28679,-1.1008961 5.50999,-0.3673329 8.63224,-0.5532422 9.36691,-0.5532422 0.73466,0 2.75429,-1.836739 6.06028,-5.5100687 l 10.9141,-10.9139593 c 0.035,0.883175 0.0711,2.36226 0.10613,3.202098 0.36733,8.4486586 0.73301,13.0405063 1.10034,13.7751722 0.36734,0.734666 2.93827,1.28680534 7.7136,1.6541383 5.14266,0.36733297 11.20712,0.5476538929 18.18645,0.5476538929 h 22.58783 C 772.13268,-0.36815157 779.85108,-0.73438172 786.83041,-1.1017147 c 6.97932,-0.367333 13.03819,-0.7335631 18.18086,-1.1008961 5.14266,-0.3673329 8.07928,-0.5532422 8.81394,-0.5532422 0.73467,0 2.75429,-1.836739 6.06029,-5.5100687 l 10.9141,-10.9139593 c 0.035,0.883175 0.0711,2.36226 0.10612,3.202098 0.36734,8.4486586 0.7386,13.0405063 1.10593,13.7751722 0.36734,0.734666 2.93827,1.28680534 7.7136,1.6541383 5.14266,0.36733297 11.20153,0.5476538929 18.18086,0.5476538929 h 22.59342 C 888.94818,-0.36815157 896.661,-0.73438172 903.64032,-1.1017147 c 6.97933,-0.367333 13.0382,-0.7335631 18.18086,-1.1008961 5.14266,-0.3673329 8.08487,-0.5532422 8.81953,-0.5532422 0.73467,0 2.75429,-1.836739 6.06029,-5.5100687 l 14.32685,-14.3228253 c 2.204,-2.203998 3.12099,-5.145016 2.75366,-8.818346 0,-4.040662 -1.10263,-4.959032 -3.30663,-2.755034 -9.55066,10.285323 -14.69253,15.06308 -15.4272,14.328414 -0.36733,-0.367333 -0.73301,-7.167738 -1.10034,-20.391725 0,-13.59132 -0.18564,-30.116383 -0.55297,-49.58503 0,-19.835982 -0.18563,-41.144392 -0.55296,-63.919032 v -64.46669 -50.13827 c 0,-13.59132 0.18563,-20.75795 0.55296,-21.49262 0,-0.73467 1.83399,-2.93764 5.50732,-6.61097 4.04066,-4.04066 8.81686,-8.63251 14.32685,-13.77517 5.51,-5.14266 11.38882,-10.65288 17.63348,-16.5302 6.61199,-5.87733 12.67086,-11.38755 18.18086,-16.53021 5.87732,-5.14266 10.83915,-9.18237 14.87982,-12.12103 4.0407,-3.306 6.426,-4.95683 7.1606,-4.95683 l 1.106,8.2651 c 0.3673,1.83667 1.65,2.2029 3.854,1.1009 2.204,-1.102 3.3066,-3.12465 3.3066,-6.06331 0,-2.93866 -0.1856,-5.32754 -0.553,-7.16421 v -3.30269 c -0.7346,-2.20399 -2.7543,-3.48859 -6.0603,-3.85593 -2.9386,-0.36733 -5.3239,0.36513 -7.1606,2.2018 -6.61199,5.87732 -11.38818,8.08029 -14.32684,6.61096 -1.46934,-0.73467 -2.20628,-2.01927 -2.20628,-3.85593 0,-2.204 -0.917,-3.67451 -2.75366,-4.40917 -1.46934,-0.36734 -3.30333,-0.18143 -5.50732,0.55324 -2.204,0.73467 -4.40926,1.83336 -6.61326,3.30269 l -5.5129,3.30827 c -1.46933,0.73467 -2.57196,0.92058 -3.30663,0.55325 -1.46933,-0.73467 -2.20069,-2.20518 -2.20069,-4.40918 0.36733,-2.57133 -1.28661,-4.22775 -4.95994,-4.96241 -3.67333,-0.73467 -7.16126,0.1837 -10.46726,2.75503 -3.30599,2.204 -5.87693,3.30828 -7.7136,3.30828 -0.73466,0 -1.10593,-0.18591 -1.10593,-0.55324 v -2.20179 c 0,-0.73467 -0.36568,-1.28681 -1.10035,-1.65414 -0.36733,-0.73467 -1.28432,-1.28681 -2.75366,-1.65414 -2.57133,0 -5.51353,0.55214 -8.81953,1.65414 0.36734,-1.46933 -0.54966,-2.56803 -2.75366,-3.30269 -2.20399,-0.73467 -4.22362,-0.36844 -6.06028,1.1009 -0.73467,0.36733 -3.49124,2.38439 -8.26657,6.05772 l -6.92604,5.77272 c -0.0895,-0.96921 -0.0799,-2.24402 -0.23459,-3.01769 v -3.30269 c -0.73467,-2.20399 -2.75429,-3.48859 -6.06029,-3.85593 -2.93866,-0.36733 -5.32955,0.36513 -7.16621,2.2018 -6.612,5.87732 -11.38261,8.08029 -14.32127,6.61096 -1.46933,-0.73467 -2.20628,-2.01927 -2.20628,-3.85593 0,-2.204 -0.91699,-3.67451 -2.75366,-4.40917 -1.46933,-0.36734 -3.30891,-0.18143 -5.5129,0.55324 -2.204,0.73467 -4.40926,1.83336 -6.61326,3.30269 l -5.50732,3.30827 c -1.46933,0.73467 -2.57196,0.92058 -3.30662,0.55325 -1.46933,-0.73467 -2.20069,-2.20518 -2.20069,-4.40918 0.36733,-2.57133 -1.28661,-4.22775 -4.95994,-4.96241 -3.67333,-0.73467 -7.16685,0.1837 -10.47285,2.75503 -3.30599,2.204 -5.87693,3.30828 -7.7136,3.30828 -0.73466,0 -1.10034,-0.18591 -1.10034,-0.55324 v -2.20179 c 0,-0.73467 -0.36568,-1.28681 -1.10035,-1.65414 -0.36733,-0.73467 -1.28991,-1.28681 -2.75925,-1.65414 -2.57133,0 -5.50794,0.55214 -8.81394,1.65414 0.36733,-1.46933 -0.54966,-2.56803 -2.75366,-3.30269 -2.204,-0.73467 -4.22362,-0.36844 -6.06029,1.1009 -0.73466,0.36733 -3.49123,2.38439 -8.26656,6.05772 l -6.93163,5.7783 c -0.0896,-0.97125 -0.074,-2.24824 -0.229,-3.02327 v -3.30269 c -0.73467,-2.20399 -2.75988,-3.48859 -6.06588,-3.85593 -2.93866,-0.36733 -5.32396,0.36513 -7.16063,2.2018 -6.61199,5.87732 -11.38819,8.08029 -14.32685,6.61096 -1.46933,-0.73467 -2.20069,-2.01927 -2.20069,-3.85593 0,-2.204 -0.92258,-3.67451 -2.75925,-4.40917 -1.46933,-0.36734 -3.48895,-0.18143 -6.06028,0.55324 -2.204,0.73467 -4.58931,1.83336 -7.16064,3.30269 l -6.61325,3.30827 c -1.83666,0.73467 -3.12493,0.92058 -3.85959,0.55325 -1.46933,-0.73467 -2.20069,-2.20518 -2.20069,-4.40918 0.36733,-2.57133 -1.28661,-4.22775 -4.95994,-4.96241 -3.67333,-0.73467 -7.16127,0.1837 -10.46726,2.75503 -3.306,2.204 -5.87694,3.30828 -7.7136,3.30828 -1.83667,0 -2.75925,-0.73246 -2.75925,-2.20179 0,-1.83667 -1.64835,-3.12686 -4.95435,-3.86152 -2.57133,0 -5.51353,0.55214 -8.81953,1.65414 0.36733,-1.46933 -0.54966,-2.56803 -2.75366,-3.30269 -2.204,-0.73467 -4.22362,-0.36844 -6.06029,1.1009 -0.73466,0.36733 -3.49123,2.38439 -8.26656,6.05772 l -6.93163,5.7783 c -0.0896,-0.97125 -0.074,-2.24824 -0.229,-3.02327 v -3.30269 c -0.73467,-2.20399 -2.75429,-3.48859 -6.06029,-3.85593 -2.93866,-0.36733 -5.32955,0.36513 -7.16622,2.2018 -6.61199,5.87732 -11.38819,8.08029 -14.32685,6.61096 -1.46933,-0.73467 -2.20069,-2.01927 -2.20069,-3.85593 0,-2.204 -0.92258,-3.67451 -2.75925,-4.40917 -1.46933,-0.36734 -3.30332,-0.18143 -5.50732,0.55324 -2.204,0.73467 -4.40925,1.83336 -6.61325,3.30269 l -5.50732,3.30827 c -1.46933,0.73467 -2.57196,0.92058 -3.30663,0.55325 -1.46933,-0.73467 -2.20627,-2.20518 -2.20627,-4.40918 0.36733,-2.57133 -1.28661,-4.22775 -4.95994,-4.96241 -3.67333,-0.73467 -7.16127,0.1837 -10.46726,2.75503 -3.306,2.204 -5.87694,3.30828 -7.7136,3.30828 -0.73467,0 -1.10035,-0.18591 -1.10035,-0.55324 v -2.20179 c 0,-0.73467 -0.37126,-1.28681 -1.10593,-1.65414 -0.36733,-0.73467 -1.28433,-1.28681 -2.75366,-1.65414 -2.57133,0 -5.50795,0.55214 -8.81395,1.65414 0.36734,-1.46933 -0.54966,-2.56803 -2.75366,-3.30269 -2.20399,-0.73467 -4.22362,-0.36844 -6.06028,1.1009 -0.73467,0.36733 -3.49124,2.38439 -8.26657,6.05772 l -6.93162,5.7783 c -0.0896,-0.97134 -0.0796,-2.24818 -0.23459,-3.02327 v -3.30269 c -0.73467,-2.20399 -2.75429,-3.48859 -6.06029,-3.85593 -2.93866,-0.36733 -5.32397,0.36513 -7.16063,2.2018 -6.612,5.87732 -11.38819,8.08029 -14.32685,6.61096 -1.46934,-0.73467 -2.20628,-2.01927 -2.20628,-3.85593 0,-2.204 -0.917,-3.67451 -2.75366,-4.40917 -1.46933,-0.36734 -3.30332,-0.18143 -5.50732,0.55324 -2.204,0.73467 -4.40926,1.83336 -6.61325,3.30269 l -5.51291,3.30827 c -1.46933,0.73467 -2.56637,0.92058 -3.30104,0.55325 -1.46933,-0.73467 -2.20628,-2.20518 -2.20628,-4.40918 0.36733,-2.57133 -1.28661,-4.22775 -4.95994,-4.96241 -3.67333,-0.73467 -7.16126,0.1837 -10.46726,2.75503 -3.30599,2.204 -5.87693,3.30828 -7.7136,3.30828 -0.73466,0 -1.10593,-0.18591 -1.10593,-0.55324 v -2.20179 c 0,-0.73467 -0.36568,-1.28681 -1.10034,-1.65414 -0.36734,-0.73467 -1.28433,-1.28681 -2.75366,-1.65414 -2.57134,0 -5.50795,0.55214 -8.81395,1.65414 0.36733,-1.46933 -0.55525,-2.56803 -2.75925,-3.30269 -2.20399,-0.73467 -4.22362,-0.36844 -6.06028,1.1009 -0.73467,0.36733 -3.49124,2.38439 -8.26657,6.05772 l -6.92604,5.77272 c -0.0896,-0.96921 -0.0799,-2.24402 -0.23459,-3.01769 v -3.30269 c -0.73466,-2.20399 -2.75429,-3.48859 -6.06028,-3.85593 -2.93867,-0.36733 -5.32956,0.36513 -7.16622,2.2018 -6.612,5.87732 -11.3826,8.08029 -14.32127,6.61096 -1.46933,-0.73467 -2.20628,-2.01927 -2.20628,-3.85593 0,-2.204 -0.91699,-3.67451 -2.75366,-4.40917 -1.46933,-0.36734 -3.3089,-0.18143 -5.5129,0.55324 -2.204,0.73467 -4.40367,1.83336 -6.60767,3.30269 l -5.5129,3.30827 c -1.46934,0.73467 -2.57196,0.92058 -3.30663,0.55325 -1.46933,-0.73467 -2.20069,-2.20518 -2.20069,-4.40918 0.36733,-2.57133 -1.28661,-4.22775 -4.95994,-4.96241 -3.67333,-0.73467 -7.16685,0.1837 -10.47285,2.75503 -3.30599,2.204 -5.87693,3.30828 -7.7136,3.30828 -0.73466,0 -1.10034,-0.18591 -1.10034,-0.55324 v -2.20179 c 0,-0.73467 -0.36568,-1.28681 -1.10035,-1.65414 -0.36733,-0.73467 -1.28433,-1.28681 -2.75366,-1.65414 -2.57133,0 -5.51353,0.55214 -8.81953,1.65414 0.36733,-1.46933 -0.54966,-2.56803 -2.75366,-3.30269 -2.204,-0.73467 -4.22362,-0.36844 -6.06029,1.1009 -0.73466,0.36733 -3.49123,2.38439 -8.26656,6.05772 l -6.93163,5.7783 c -0.0896,-0.97125 -0.074,-2.24824 -0.229,-3.02327 v -3.30269 c -0.73467,-2.20399 -2.75429,-3.48859 -6.06029,-3.85593 -2.93866,-0.36733 -5.32955,0.36513 -7.16622,2.2018 -6.61199,5.87732 -11.38818,8.08029 -14.32685,6.61096 -1.46933,-0.73467 -2.20069,-2.01927 -2.20069,-3.85593 0,-2.204 -0.92258,-3.67451 -2.75925,-4.40917 -1.46933,-0.36734 -3.30332,-0.18143 -5.50732,0.55324 -2.20399,0.73467 -4.40925,1.83336 -6.61325,3.30269 l -5.50732,3.30827 c -1.46933,0.73467 -2.57196,0.92058 -3.30662,0.55325 -1.46934,-0.73467 -2.20628,-2.20518 -2.20628,-4.40918 0.36733,-2.57133 -1.28661,-4.22775 -4.95994,-4.96241 -3.67333,-0.73467 -7.16126,0.1837 -10.46726,2.75503 -3.306,2.204 -5.87694,3.30828 -7.7136,3.30828 -0.73467,0 -1.10035,-0.18591 -1.10035,-0.55324 v -2.20179 c 0,-0.73467 -0.37126,-1.28681 -1.10593,-1.65414 -0.36733,-0.73467 -1.28433,-1.28681 -2.75366,-1.65414 -2.57133,0 -5.50795,0.55214 -8.81394,1.65414 0.36733,-1.46933 -0.54967,-2.56803 -2.75366,-3.30269 -2.204,-0.73467 -4.22921,-0.36844 -6.06588,1.1009 -0.73466,0.36733 -3.48565,2.38439 -8.26098,6.05772 l -6.93162,5.7783 c -0.0896,-0.97134 -0.0796,-2.24818 -0.23459,-3.02327 v -3.30269 c -0.73467,-2.20399 -2.75429,-3.48859 -6.06029,-3.85593 -2.93866,-0.36733 -5.32397,0.36513 -7.16063,2.2018 -6.612,5.87732 -11.38819,8.08029 -14.32685,6.61096 -1.46933,-0.73467 -2.20628,-2.01927 -2.20628,-3.85593 0,-2.204 -0.917,-3.67451 -2.75366,-4.40917 -1.46933,-0.36734 -3.30332,-0.18143 -5.50732,0.55324 -2.204,0.73467 -4.40926,1.83336 -6.61325,3.30269 l -5.51291,3.30827 c -1.46933,0.73467 -2.57196,0.92058 -3.30662,0.55325 -1.46934,-0.73467 -2.2007,-2.20518 -2.2007,-4.40918 0.36733,-2.57133 -1.28661,-4.22775 -4.95994,-4.96241 -3.67333,-0.73467 -7.16126,0.1837 -10.46726,2.75503 -3.30599,2.204 -5.87693,3.30828 -7.71359,3.30828 -0.73467,0 -1.10594,-0.18591 -1.10594,-0.55324 v -2.20179 c 0,-0.73467 -0.36568,-1.28681 -1.10034,-1.65414 -0.36734,-0.73467 -1.28433,-1.28681 -2.75366,-1.65414 -2.57133,0 -5.51354,0.55214 -8.81954,1.65414 0.36734,-1.46933 -0.54966,-2.56803 -2.75365,-3.30269 -1.102004,-0.36733 -2.156827,-0.46308 -3.166993,-0.27942 z m 7.987293,7.99128 c 0.8265,0 1.42561,0.18591 1.79295,0.55324 1.46933,1.102 -0.37025,4.22334 -5.51291,9.366 -4.775327,5.14266 -10.468515,10.65288 -17.080509,16.53021 -6.24466,5.87732 -11.937849,11.20163 -17.08051,15.97696 -4.775329,4.77533 -6.429271,7.34453 -4.959939,7.71186 1.469332,0.36734 5.514163,-2.20186 12.126157,-7.71186 6.979326,-5.50999 14.326457,-11.57235 22.040449,-18.18434 7.713992,-6.612 15.061122,-12.48844 22.040452,-17.63111 6.97932,-5.14266 11.56988,-7.34563 13.77388,-6.61096 2.57133,0.73467 1.83439,3.67568 -2.20628,8.81835 -3.67333,5.14266 -8.26389,10.83319 -13.77388,17.07786 -5.14266,5.87732 -9.91886,11.38754 -14.32685,16.5302 -4.407997,4.77533 -6.06194,7.53044 -4.959941,8.2651 0.734666,0.36734 2.388608,-0.55103 4.959941,-2.75503 2.93866,-2.204 6.24655,-4.95911 9.91988,-8.2651 4.04066,-3.67333 8.26554,-7.52713 12.67353,-11.56779 4.408,-4.408 8.63288,-8.4533 12.67354,-12.12663 4.408,-3.67333 8.26161,-6.42843 11.56761,-8.2651 3.67333,-2.204 6.61553,-3.12237 8.81953,-2.75503 1.102,0.36733 1.83336,1.10538 2.20069,2.20738 0.36733,0.73466 0.73302,1.65303 1.10035,2.75503 0.73466,0.73467 1.28598,1.46713 1.65331,2.20179 0.73467,0.73467 2.02293,0.73467 3.85959,0 l -65.56838,59.50986 c -0.73466,0.73467 -3.305602,1.28681 -7.713598,1.65414 H 77.693185 57.853429 c -6.979326,0 -13.58951,-0.18591 -19.834171,-0.55324 -5.877327,-0.36733 -11.019202,-0.55324 -15.427197,-0.55324 -4.040663,-0.36734 -6.245919,-0.73357 -6.613252,-1.1009 -0.734666,-0.36733 1.836271,-3.12244 7.713599,-8.2651 6.24466,-5.51 13.591791,-11.93858 22.040449,-19.28524 l 26.447423,-22.04028 c 9.183324,-7.71399 16.530455,-13.77076 22.040449,-18.17875 2.571331,-1.102 5.142268,-2.02037 7.713601,-2.75504 1.28566,-0.36733 2.34049,-0.55324 3.16699,-0.55324 z m 116.8155,0 c 0.8265,0 1.42003,0.18591 1.78736,0.55324 1.46933,1.102 -0.36466,4.22334 -5.50732,9.366 -4.77533,5.14266 -10.46852,10.65288 -17.08051,16.53021 -6.24466,5.87732 -11.93785,11.20163 -17.08051,15.97696 -4.77533,4.77533 -6.42927,7.34453 -4.95994,7.71186 1.46933,0.36734 5.50858,-2.20186 12.12057,-7.71186 6.97933,-5.50999 14.32646,-11.57235 22.04045,-18.18434 7.714,-6.612 15.06113,-12.48844 22.04045,-17.63111 6.97933,-5.14266 11.56989,-7.34563 13.77389,-6.61096 2.57133,0.73467 1.83997,3.67568 -2.2007,8.81835 -3.67333,5.14266 -8.26947,10.83319 -13.77947,17.07786 -5.14266,5.87732 -9.91885,11.38754 -14.32685,16.5302 -4.40799,4.77533 -6.05635,7.53044 -4.95435,8.2651 0.73467,0.36734 2.38302,-0.55103 4.95435,-2.75503 2.93867,-2.204 6.24655,-4.95911 9.91988,-8.2651 4.04066,-3.67333 8.26554,-7.52713 12.67354,-11.56779 4.40799,-4.408 8.63287,-8.4533 12.67354,-12.12663 4.40799,-3.67333 8.26719,-6.42843 11.57319,-8.2651 3.67333,-2.204 6.60995,-3.12237 8.81394,-2.75503 1.102,0.36733 1.83895,1.10538 2.20628,2.20738 0.36734,0.73466 0.73302,1.65303 1.10035,2.75503 0.73466,0.73467 1.28598,1.46713 1.65331,2.20179 0.73467,0.73467 2.01734,0.73467 3.85401,0 l -65.56838,59.50986 c -0.73467,0.73467 -3.30561,1.28681 -7.7136,1.65414 h -15.4272 -19.83417 c -6.97933,0 -13.5951,-0.18591 -19.83976,-0.55324 -5.87732,-0.36733 -11.0192,-0.55324 -15.42719,-0.55324 -4.04067,-0.36734 -6.24592,-0.73357 -6.61326,-1.1009 -0.73466,-0.36733 1.83627,-3.12244 7.7136,-8.2651 6.24466,-5.51 13.59179,-11.93858 22.04045,-19.28524 l 26.44742,-22.04028 c 9.18333,-7.71399 16.53046,-13.77076 22.04045,-18.17875 2.57133,-1.102 5.14227,-2.02037 7.7136,-2.75504 1.28567,-0.36733 2.34608,-0.55324 3.17258,-0.55324 z m 116.80991,0 c 0.8265,0 1.42562,0.18591 1.79295,0.55324 1.46933,1.102 -0.37024,4.22334 -5.5129,9.366 -4.77533,5.14266 -10.46852,10.65288 -17.08051,16.53021 -6.24466,5.87732 -11.93785,11.20163 -17.08051,15.97696 -4.77533,4.77533 -6.42928,7.34453 -4.95994,7.71186 1.46933,0.36734 5.50857,-2.20186 12.12057,-7.71186 6.97932,-5.50999 14.32646,-11.57235 22.04045,-18.18434 7.71399,-6.612 15.06112,-12.48844 22.04045,-17.63111 6.97932,-5.14266 11.56988,-7.34563 13.77388,-6.61096 2.57133,0.73467 1.83997,3.67568 -2.20069,8.81835 -3.67333,5.14266 -8.26389,10.83319 -13.77389,17.07786 -5.14266,5.87732 -9.91885,11.38754 -14.32685,16.5302 -4.40799,4.77533 -6.06194,7.53044 -4.95994,8.2651 0.73467,0.36734 2.38861,-0.55103 4.95994,-2.75503 2.93867,-2.204 6.24655,-4.95911 9.91988,-8.2651 4.04066,-3.67333 8.25996,-7.52713 12.66795,-11.56779 4.408,-4.408 8.63288,-8.4533 12.67354,-12.12663 4.408,-3.67333 8.2672,-6.42843 11.57319,-8.2651 3.67333,-2.204 6.60995,-3.12237 8.81395,-2.75503 1.102,0.36733 1.83894,1.10538 2.20628,2.20738 0.36733,0.73466 0.73301,1.65303 1.10034,2.75503 0.73467,0.73467 1.28598,1.46713 1.65332,2.20179 0.73466,0.73467 2.02292,0.73467 3.85959,0 l -65.56838,59.50986 c -0.73467,0.73467 -3.31119,1.28681 -7.71919,1.65414 h -15.4272 -19.83417 c -6.97932,0 -13.58951,-0.18591 -19.83417,-0.55324 -5.87732,-0.36733 -11.0192,-0.55324 -15.42719,-0.55324 -4.04067,-0.36734 -6.24592,-0.73357 -6.61326,-1.1009 -0.73466,-0.36733 1.83627,-3.12244 7.7136,-8.2651 6.24466,-5.51 13.59179,-11.93858 22.04045,-19.28524 l 26.44742,-22.04028 c 9.18333,-7.71399 16.53046,-13.77076 22.04045,-18.17875 2.57133,-1.102 5.14227,-2.02037 7.7136,-2.75504 1.28567,-0.36733 2.34049,-0.55324 3.16699,-0.55324 z m 116.80992,0 c 0.82649,0 1.42561,0.18591 1.79295,0.55324 1.46933,1.102 -0.36466,4.22334 -5.50732,9.366 -4.77533,5.14266 -10.47411,10.65288 -17.0861,16.53021 -6.24466,5.87732 -11.93785,11.20163 -17.08051,15.97696 -4.77533,4.77533 -6.42369,7.34453 -4.95435,7.71186 1.46933,0.36734 5.50857,-2.20186 12.12057,-7.71186 6.97932,-5.50999 14.32646,-11.57235 22.04045,-18.18434 7.71399,-6.612 15.06112,-12.48844 22.04045,-17.63111 6.97932,-5.14266 11.56988,-7.34563 13.77388,-6.61096 2.57133,0.73467 1.83439,3.67568 -2.20628,8.81835 -3.67333,5.14266 -8.26389,10.83319 -13.77388,17.07786 -5.14266,5.87732 -9.91886,11.38754 -14.32685,16.5302 -4.408,4.77533 -6.06194,7.53044 -4.95994,8.2651 0.73466,0.36734 2.38861,-0.55103 4.95994,-2.75503 2.93866,-2.204 6.24655,-4.95911 9.91988,-8.2651 4.04066,-3.67333 8.26554,-7.52713 12.67353,-11.56779 4.408,-4.408 8.63288,-8.4533 12.67354,-12.12663 4.408,-3.67333 8.26161,-6.42843 11.56761,-8.2651 3.67333,-2.204 6.61553,-3.12237 8.81953,-2.75503 1.102,0.36733 1.83336,1.10538 2.20069,2.20738 0.36733,0.73466 0.7386,1.65303 1.10593,2.75503 0.73467,0.73467 1.2804,1.46713 1.64773,2.20179 0.73467,0.73467 2.02293,0.73467 3.85959,0 l -65.56838,59.50986 c -0.73467,0.73467 -3.3056,1.28681 -7.7136,1.65414 h -15.4272 -19.83975 c -6.97933,0 -13.58951,-0.18591 -19.83417,-0.55324 -5.87733,-0.36733 -11.0192,-0.55324 -15.4272,-0.55324 -4.04066,-0.36734 -6.24592,-0.73357 -6.61325,-1.1009 -0.73467,-0.36733 1.83627,-3.12244 7.7136,-8.2651 6.24466,-5.51 13.59179,-11.93858 22.04045,-19.28524 l 26.44742,-22.04028 c 9.18332,-7.71399 16.53045,-13.77076 22.04045,-18.17875 2.57133,-1.102 5.14227,-2.02037 7.7136,-2.75504 1.28566,-0.36733 2.34049,-0.55324 3.16699,-0.55324 z m 116.8155,0 c 0.82649,0 1.42003,0.18591 1.78736,0.55324 1.46933,1.102 -0.36466,4.22334 -5.50732,9.366 -4.77533,5.14266 -10.46852,10.65288 -17.08051,16.53021 -6.24466,5.87732 -11.93785,11.20163 -17.08051,15.97696 -4.77533,4.77533 -6.42927,7.34453 -4.95994,7.71186 1.46933,0.36734 5.50858,-2.20186 12.12057,-7.71186 6.97933,-5.50999 14.32646,-11.57235 22.04045,-18.18434 7.71399,-6.612 15.06113,-12.48844 22.04045,-17.63111 6.97933,-5.14266 11.56989,-7.34563 13.77389,-6.61096 2.57133,0.73467 1.83997,3.67568 -2.2007,8.81835 -3.67333,5.14266 -8.26947,10.83319 -13.77947,17.07786 -5.14266,5.87732 -9.91327,11.38754 -14.32126,16.5302 -4.408,4.77533 -6.06194,7.53044 -4.95994,8.2651 0.73466,0.36734 2.38861,-0.55103 4.95994,-2.75503 2.93866,-2.204 6.24096,-4.95911 9.91429,-8.2651 4.04066,-3.67333 8.26554,-7.52713 12.67354,-11.56779 4.40799,-4.408 8.63287,-8.4533 12.67354,-12.12663 4.40799,-3.67333 8.26719,-6.42843 11.57319,-8.2651 3.67333,-2.204 6.60994,-3.12237 8.81394,-2.75503 1.102,0.36733 1.83895,1.10538 2.20628,2.20738 0.36733,0.73466 0.73302,1.65303 1.10035,2.75503 0.73466,0.73467 1.28598,1.46713 1.65331,2.20179 0.73467,0.73467 2.01734,0.73467 3.85401,0 l -65.56838,59.50986 c -0.73467,0.73467 -3.30561,1.28681 -7.7136,1.65414 h -15.4272 -19.83417 c -6.97933,0 -13.5951,-0.18591 -19.83976,-0.55324 -5.87733,-0.36733 -11.0192,-0.55324 -15.4272,-0.55324 -4.04066,-0.36734 -6.24591,-0.73357 -6.61325,-1.1009 -0.73466,-0.36733 1.84186,-3.12244 7.71919,-8.2651 6.24466,-5.51 13.5862,-11.93858 22.03486,-19.28524 l 26.45301,-22.04028 c 9.18332,-7.71399 16.53045,-13.77076 22.04045,-18.17875 2.57133,-1.102 5.14227,-2.02037 7.7136,-2.75504 1.28566,-0.36733 2.34049,-0.55324 3.16699,-0.55324 z m 116.80991,0 c 0.8265,0 1.42562,0.18591 1.79295,0.55324 1.46933,1.102 -0.18461,4.22334 -4.95994,9.366 -4.77533,5.14266 -10.10283,10.65288 -15.98016,16.53021 l -15.98017,15.97696 c -4.77532,4.77533 -6.42368,7.34453 -4.95435,7.71186 1.46933,0.36734 5.50858,-2.20186 12.12057,-7.71186 6.97933,-5.50999 14.32646,-11.57235 22.04045,-18.18434 7.71399,-6.612 15.06113,-12.48844 22.04045,-17.63111 6.97933,-5.14266 11.56989,-7.34563 13.77389,-6.61096 2.57133,0.73467 2.02001,3.67568 -1.65332,8.81835 -3.67333,5.14266 -8.08384,10.83319 -13.2265,17.07786 -4.77533,5.87732 -9.18026,11.38754 -13.22092,16.5302 -4.04066,4.77533 -5.50897,7.53044 -4.40697,8.2651 0.73466,0.36734 2.38302,-0.55103 4.95435,-2.75503 2.93867,-2.204 6.24655,-4.95911 9.91988,-8.2651 4.04066,-3.67333 8.26554,-7.52713 12.67354,-11.56779 4.40799,-4.408 8.63287,-8.4533 12.67354,-12.12663 4.40799,-3.67333 8.2616,-6.42843 11.5676,-8.2651 3.67333,-2.204 6.61553,-3.12237 8.81953,-2.75503 1.102,0.36733 1.83336,1.10538 2.2007,2.20738 0.36733,0.73466 0.7386,1.65303 1.10593,2.75503 0.73466,0.73467 1.28598,1.46713 1.65331,2.20179 0.73467,0.73467 2.01734,0.73467 3.85401,0 l -65.56839,59.50986 c -0.36733,0.73467 -2.93827,1.28681 -7.71359,1.65414 H 666.1609 644.66783 c -7.34666,0 -14.32252,-0.18591 -20.93451,-0.55324 -6.612,-0.36733 -12.12514,-0.55324 -16.53313,-0.55324 -4.408,-0.36734 -6.7933,-0.73357 -7.16064,-1.1009 -0.73466,-0.36733 1.83627,-3.12244 7.7136,-8.2651 6.24466,-5.51 13.59179,-11.93858 22.04045,-19.28524 l 26.44742,-22.04028 c 9.18333,-7.71399 16.53046,-13.77076 22.04045,-18.17875 2.57133,-1.102 5.14227,-2.02037 7.7136,-2.75504 1.28567,-0.36733 2.34049,-0.55324 3.16699,-0.55324 z m 122.32282,0 c 0.8265,0 1.42562,0.18591 1.79295,0.55324 1.46933,1.102 -0.37024,4.22334 -5.5129,9.366 -4.77533,5.14266 -10.46852,10.65288 -17.08051,16.53021 -6.24467,5.87732 -11.93785,11.20163 -17.08052,15.97696 -4.77532,4.77533 -6.42927,7.34453 -4.95993,7.71186 1.46933,0.36734 5.50857,-2.20186 12.12057,-7.71186 6.97932,-5.50999 14.32645,-11.57235 22.04045,-18.18434 7.71399,-6.612 15.06112,-12.48844 22.04045,-17.63111 6.97932,-5.14266 11.56988,-7.34563 13.77388,-6.61096 2.57133,0.73467 1.83997,3.67568 -2.20069,8.81835 -3.67333,5.14266 -8.26389,10.83319 -13.77389,17.07786 -5.14266,5.87732 -9.91885,11.38754 -14.32685,16.5302 -4.40799,4.77533 -6.06194,7.53044 -4.95994,8.2651 0.73467,0.36734 2.38861,-0.55103 4.95994,-2.75503 2.93867,-2.204 6.24096,-4.95911 9.91429,-8.2651 4.04067,-3.67333 8.26555,-7.52713 12.67354,-11.56779 4.408,-4.408 8.63288,-8.4533 12.67354,-12.12663 4.408,-3.67333 8.26719,-6.42843 11.57319,-8.2651 3.67333,-2.204 6.60995,-3.12237 8.81395,-2.75503 1.102,0.36733 1.83894,1.10538 2.20628,2.20738 0.36733,0.73466 0.73301,1.65303 1.10034,2.75503 0.73467,0.73467 1.28598,1.46713 1.65332,2.20179 0.73466,0.73467 2.02292,0.73467 3.85959,0 l -65.56838,59.50986 c -0.73467,0.73467 -3.31119,1.28681 -7.71919,1.65414 h -15.4272 -19.83417 c -6.97932,0 -13.58951,-0.18591 -19.83417,-0.55324 -5.87733,-0.36733 -11.02479,-0.55324 -15.43278,-0.55324 -4.04066,-0.36734 -6.24033,-0.73357 -6.60767,-1.1009 -0.73466,-0.36733 1.83627,-3.12244 7.7136,-8.2651 6.24466,-5.51 13.59179,-11.93858 22.04045,-19.28524 l 26.44742,-22.04028 c 9.18333,-7.71399 16.53046,-13.77076 22.04045,-18.17875 2.57133,-1.102 5.14227,-2.02037 7.7136,-2.75504 1.28567,-0.36733 2.34049,-0.55324 3.16699,-0.55324 z m 116.80991,0 c 0.8265,0 1.42562,0.18591 1.79296,0.55324 1.46933,1.102 -0.36466,4.22334 -5.50732,9.366 -4.77533,5.14266 -10.47411,10.65288 -17.0861,16.53021 -6.24466,5.87732 -11.93785,11.20163 -17.08051,15.97696 -4.77533,4.77533 -6.42369,7.34453 -4.95435,7.71186 1.46933,0.36734 5.50857,-2.20186 12.12057,-7.71186 6.97932,-5.50999 14.32645,-11.57235 22.04045,-18.18434 7.71399,-6.612 15.06112,-12.48844 22.04045,-17.63111 6.97932,-5.14266 11.56988,-7.34563 13.77388,-6.61096 2.57133,0.73467 1.83438,3.67568 -2.20628,8.81835 -3.67333,5.14266 -8.26389,10.83319 -13.77388,17.07786 -5.14266,5.87732 -9.91886,11.38754 -14.32685,16.5302 -4.408,4.77533 -6.06194,7.53044 -4.95994,8.2651 0.73466,0.36734 2.38861,-0.55103 4.95994,-2.75503 2.93866,-2.204 6.24654,-4.95911 9.91987,-8.2651 4.04067,-3.67333 8.26555,-7.52713 12.67354,-11.56779 4.408,-4.408 8.63288,-8.4533 12.67354,-12.12663 4.408,-3.67333 8.26161,-6.42843 11.56761,-8.2651 3.67333,-2.204 6.61553,-3.12237 8.81953,-2.75503 1.102,0.36733 1.83336,1.10538 2.20069,2.20738 0.36733,0.73466 0.73301,1.65303 1.10035,2.75503 0.73466,0.73467 1.28598,1.46713 1.65331,2.20179 0.73467,0.73467 2.02293,0.73467 3.85959,0 l -65.56838,59.50986 c -0.73467,0.73467 -3.3056,1.28681 -7.7136,1.65414 h -15.4272 -19.83975 c -6.97933,0 -13.58951,-0.18591 -19.83417,-0.55324 -5.87733,-0.36733 -11.01921,-0.55324 -15.4272,-0.55324 -4.04066,-0.36734 -6.24592,-0.73357 -6.61325,-1.1009 -0.73467,-0.36733 1.83627,-3.12244 7.7136,-8.2651 6.24466,-5.51 13.59179,-11.93858 22.04045,-19.28524 l 26.44742,-22.04028 c 9.18332,-7.71399 16.53045,-13.77076 22.04045,-18.17875 2.57133,-1.102 5.14227,-2.02037 7.7136,-2.75504 1.28566,-0.36733 2.34049,-0.55324 3.16698,-0.55324 z m -740.40494,6.06331 0.69819,5.20271 -2.35151,1.95591 c -6.24466,5.14266 -13.04047,10.65288 -20.38713,16.53021 -6.97933,5.87732 -13.58951,11.57345 -19.83417,17.08344 -6.24466,5.14267 -11.57217,9.73451 -15.98017,13.77518 -4.04066,4.04066 -6.24592,6.42954 -6.61325,7.1642 -0.36733,0.73467 -0.54738,5.50684 -0.54738,14.32283 0,8.44866 -0.18563,19.655 -0.55297,33.61365 v 47.38324 53.44655 c 0.36734,17.99932 0.55297,35.81457 0.55297,53.446549 0.36733,17.264649 0.54738,32.876931 0.54738,46.835584 0.20495,7.583085 0.40946,12.65779 0.61441,18.754351 -7.03779,7.387588 -11.55551,11.629881 -12.18201,11.003373 -0.36734,-0.367333 -0.7386,-7.167738 -1.10594,-20.391725 0,-13.59132 -0.18004,-30.116383 -0.54738,-49.58503 0,-19.835982 -0.18563,-41.144392 -0.55296,-63.919032 v -64.46669 -50.13827 c 0,-13.59132 0.18563,-20.75795 0.55296,-21.49262 0,-0.73467 1.83399,-2.93764 5.50732,-6.61097 4.04067,-4.04066 8.81686,-8.63251 14.32685,-13.77517 5.51,-5.14266 11.38882,-10.65288 17.63348,-16.5302 6.61199,-5.87733 12.67086,-11.38755 18.18086,-16.53021 5.87733,-5.14266 10.83915,-9.18237 14.87981,-12.12103 4.04067,-3.306 6.42597,-4.95683 7.16064,-4.95683 z m 116.8155,0 0.6926,5.20271 -2.34592,1.95591 c -6.24466,5.14266 -13.04047,10.65288 -20.38713,16.53021 -6.97933,5.87732 -13.5951,11.57345 -19.83976,17.08344 -6.24466,5.14267 -11.56658,9.73451 -15.97458,13.77518 -4.04066,4.04066 -6.24592,6.42954 -6.61325,7.1642 -0.36733,0.73467 -0.55296,5.50684 -0.55296,14.32283 0,8.44866 -0.18564,19.655 -0.55297,33.61365 v 47.38324 53.44655 c 0.36733,17.99932 0.55297,35.81457 0.55297,53.446549 0.36733,17.264649 0.55296,32.876931 0.55296,46.835584 0.20489,7.58087 0.40952,12.653549 0.61441,18.748763 -7.04173,7.39211 -11.56091,11.635653 -12.1876,11.008961 -0.36733,-0.367333 -0.73301,-7.167738 -1.10035,-20.391725 0,-13.59132 -0.18563,-30.116383 -0.55296,-49.58503 0,-19.835982 -0.18005,-41.144392 -0.54738,-63.919032 v -64.46669 -50.13827 c 0,-13.59132 0.18004,-20.75795 0.54738,-21.49262 0,-0.73467 1.83957,-2.93764 5.5129,-6.61097 4.04067,-4.04066 8.81686,-8.63251 14.32685,-13.77517 5.51,-5.14266 11.38323,-10.65288 17.62789,-16.5302 6.612,-5.87733 12.67645,-11.38755 18.18645,-16.53021 5.87733,-5.14266 10.83357,-9.18237 14.87423,-12.12103 4.04066,-3.306 6.43155,-4.95683 7.16622,-4.95683 z m 116.80991,0 0.69261,5.20271 -2.34592,1.95591 c -6.24466,5.14266 -13.04048,10.65288 -20.38714,16.53021 -6.97932,5.87732 -13.58951,11.57345 -19.83417,17.08344 -6.24466,5.14267 -11.57217,9.73451 -15.98016,13.77518 -4.04066,4.04066 -6.24592,6.42954 -6.61325,7.1642 -0.36734,0.73467 -0.55297,5.50684 -0.55297,14.32283 0,8.44866 -0.18005,19.655 -0.54738,33.61365 v 47.38324 53.44655 c 0.36733,17.99932 0.54738,35.81457 0.54738,53.446549 0.36733,17.264649 0.55297,32.876931 0.55297,46.835584 0.20495,7.583127 0.40945,12.657765 0.6144,18.754351 -7.03778,7.387588 -11.5555,11.629881 -12.18201,11.003373 -0.36733,-0.367333 -0.7386,-7.167738 -1.10593,-20.391725 0,-13.59132 -0.18005,-30.116383 -0.54738,-49.58503 0,-19.835982 -0.18564,-41.144392 -0.55297,-63.919032 v -64.46669 -50.13827 c 0,-13.59132 0.18563,-20.75795 0.55297,-21.49262 0,-0.73467 1.83399,-2.93764 5.50732,-6.61097 4.04066,-4.04066 8.81685,-8.63251 14.32685,-13.77517 5.50999,-5.14266 11.38881,-10.65288 17.63348,-16.5302 6.61199,-5.87733 12.67086,-11.38755 18.18085,-16.53021 5.87733,-5.14266 10.83916,-9.18237 14.87982,-12.12103 4.04066,-3.306 6.42597,-4.95683 7.16063,-4.95683 z m 116.80992,0 0.69819,5.20271 -2.35151,1.95591 c -6.24466,5.14266 -13.04047,10.65288 -20.38713,16.53021 -6.97933,5.87732 -13.58951,11.57345 -19.83417,17.08344 -6.24466,5.14267 -11.57217,9.73451 -15.98017,13.77518 -4.04066,4.04066 -6.24592,6.42954 -6.61325,7.1642 -0.36733,0.73467 -0.54738,5.50684 -0.54738,14.32283 0,8.44866 -0.18563,19.655 -0.55297,33.61365 v 47.38324 53.44655 c 0.36734,17.99932 0.55297,35.81457 0.55297,53.446549 0.36733,17.264649 0.54738,32.876931 0.54738,46.835584 0.20495,7.583085 0.40946,12.65779 0.61441,18.754351 -7.03779,7.387588 -11.55551,11.629881 -12.18201,11.003373 -0.36734,-0.367333 -0.73302,-7.167738 -1.10035,-20.391725 0,-13.59132 -0.18563,-30.116383 -0.55297,-49.58503 0,-19.835982 -0.18563,-41.144392 -0.55296,-63.919032 v -64.46669 -50.13827 c 0,-13.59132 0.18563,-20.75795 0.55296,-21.49262 0,-0.73467 1.83399,-2.93764 5.50732,-6.61097 4.04066,-4.04066 8.81686,-8.63251 14.32685,-13.77517 5.51,-5.14266 11.38882,-10.65288 17.63348,-16.5302 6.61199,-5.87733 12.67086,-11.38755 18.18086,-16.53021 5.87732,-5.14266 10.83915,-9.18237 14.87981,-12.12103 4.04067,-3.306 6.42597,-4.95683 7.16064,-4.95683 z m 116.8155,0 0.6926,5.20271 -2.34592,1.95591 c -6.24466,5.14266 -13.04047,10.65288 -20.38713,16.53021 -6.97933,5.87732 -13.5951,11.57345 -19.83976,17.08344 -6.24466,5.14267 -11.56658,9.73451 -15.97458,13.77518 -4.04066,4.04066 -6.24592,6.42954 -6.61325,7.1642 -0.36733,0.73467 -0.55297,5.50684 -0.55297,14.32283 0,8.44866 -0.18004,19.655 -0.54738,33.61365 v 47.38324 53.44655 c 0.36734,17.99932 0.54738,35.81457 0.54738,53.446549 0.36734,17.264649 0.55297,32.876931 0.55297,46.835584 0.20489,7.58087 0.40952,12.653549 0.61441,18.748763 -7.04174,7.39211 -11.56091,11.635653 -12.1876,11.008961 -0.36733,-0.367333 -0.73301,-7.167738 -1.10035,-20.391725 0,-13.59132 -0.18563,-30.116383 -0.55296,-49.58503 0,-19.835982 -0.18005,-41.144392 -0.54738,-63.919032 v -64.46669 -50.13827 c 0,-13.59132 0.18004,-20.75795 0.54738,-21.49262 0,-0.73467 1.83957,-2.93764 5.5129,-6.61097 4.04066,-4.04066 8.81686,-8.63251 14.32685,-13.77517 5.51,-5.14266 11.38323,-10.65288 17.62789,-16.5302 6.612,-5.87733 12.67645,-11.38755 18.18645,-16.53021 5.87732,-5.14266 10.83357,-9.18237 14.87423,-12.12103 4.04066,-3.306 6.43155,-4.95683 7.16622,-4.95683 z m 122.31723,0 0.69819,5.20271 -2.34592,1.95591 c -6.24466,5.14266 -13.04047,10.65288 -20.38713,16.53021 -6.97933,5.87732 -13.5951,11.57345 -19.83976,17.08344 -6.24466,5.14267 -11.57217,9.73451 -15.98016,13.77518 -4.04067,4.04066 -6.24034,6.42954 -6.60767,7.1642 -0.36733,0.73467 -0.55297,5.50684 -0.55297,14.32283 0,8.44866 -0.18563,19.655 -0.55296,33.61365 v 47.38324 53.44655 c 0.36733,17.99932 0.55296,35.81457 0.55296,53.446549 0.36734,17.264649 0.55297,32.876931 0.55297,46.835584 0.20489,7.58087 0.40952,12.653549 0.61441,18.748763 -7.04174,7.39211 -11.56091,11.635653 -12.1876,11.008961 -0.36733,-0.367333 -0.73301,-7.167738 -1.10035,-20.391725 0,-13.59132 -0.18563,-30.116383 -0.55296,-49.58503 0,-19.835982 -0.18564,-41.144392 -0.55297,-63.919032 v -64.46669 -50.13827 c 0,-13.59132 0.18563,-20.75795 0.55297,-21.49262 0.36733,-0.73467 2.38695,-2.93764 6.06028,-6.61097 3.67333,-4.04066 8.26389,-8.63251 13.77389,-13.77517 5.50999,-5.14266 11.38881,-10.65288 17.63347,-16.5302 6.612,-5.87733 12.67645,-11.38755 18.18645,-16.53021 5.87732,-5.14266 10.83357,-9.18237 14.87423,-12.12103 4.04066,-3.306 6.42597,-4.95683 7.16063,-4.95683 z m 116.8155,0 0.69261,5.20271 -2.34592,1.95591 c -6.24466,5.14266 -13.04048,10.65288 -20.38714,16.53021 -6.97932,5.87732 -13.58951,11.57345 -19.83417,17.08344 -6.24466,5.14267 -11.57217,9.73451 -15.98016,13.77518 -4.04067,4.04066 -6.24592,6.42954 -6.61325,7.1642 -0.36734,0.73467 -0.55297,5.50684 -0.55297,14.32283 0,8.44866 -0.18005,19.655 -0.54738,33.61365 v 47.38324 53.44655 c 0.36733,17.99932 0.54738,35.81457 0.54738,53.446549 0.36733,17.264649 0.55297,32.876931 0.55297,46.835584 0.20494,7.583127 0.40945,12.657765 0.6144,18.754351 -7.03778,7.387588 -11.56109,11.629881 -12.1876,11.003373 -0.36733,-0.367333 -0.73301,-7.167738 -1.10034,-20.391725 0,-13.59132 -0.18005,-30.116383 -0.54738,-49.58503 0,-19.835982 -0.18564,-41.144392 -0.55297,-63.919032 v -64.46669 -50.13827 c 0,-13.59132 0.18563,-20.75795 0.55297,-21.49262 0,-0.73467 1.83399,-2.93764 5.50732,-6.61097 4.04066,-4.04066 8.81685,-8.63251 14.32685,-13.77517 5.50999,-5.14266 11.38881,-10.65288 17.63347,-16.5302 6.612,-5.87733 12.67087,-11.38755 18.18086,-16.53021 5.87733,-5.14266 10.83357,-9.18237 14.87423,-12.12103 4.04067,-3.306 6.43156,-4.95683 7.16622,-4.95683 z m -827.053069,75.76065 c 3.305996,0 6.428248,0.0902 9.366911,0.27383 6.244661,0 11.572169,0.18591 15.980164,0.55324 4.407996,0.36733 6.798885,0.73356 7.166218,1.1009 0.367336,0.36733 0.547386,4.40704 0.547386,12.12103 0.36733,7.71399 0.55296,17.81606 0.55296,30.30538 0.36733,12.48932 0.54738,26.817 0.54738,42.97965 v 48.48414 49.042961 c 0,15.795317 -0.18005,30.117411 -0.54738,42.974065 v 30.85862 c 0,8.081325 -0.18563,12.487264 -0.55296,13.22193 -0.367338,1.469332 -4.772265,2.57361 -13.220923,3.3082762 -8.081326,0.734666 -17.082399,1.2868053 -27.000389,1.6541383 -9.91799,0 -19.284744,-0.1859092 -28.100735,-0.5532422 -8.448659,-0.367333 -13.039219,-0.9194723 -13.773885,-1.6541383 -0.367333,-0.367333 -0.738599,-4.407041 -1.105932,-12.121033 -0.367333,-8.081326 -0.733014,-18.549621 -1.100347,-31.406275 -0.367333,-12.856653 -0.733014,-27.364657 -1.100347,-43.527307 0,-16.529985 -0.185633,-33.246545 -0.552966,-50.143865 v -49.59061 -43.52731 -30.85303 c 0,-7.714 0.185633,-11.75929 0.552966,-12.12663 0.367333,-0.36733 2.572589,-0.54765 6.613252,-0.54765 4.040663,-0.36733 9.182537,-0.55324 15.427198,-0.55324 h 19.83417 c 3.67333,-0.18367 7.161262,-0.27383 10.467259,-0.27383 z m 116.815499,0 c 3.306,0 6.42825,0.0902 9.36691,0.27383 6.24466,0 11.56659,0.18591 15.97458,0.55324 4.408,0.36733 6.79889,0.73356 7.16622,1.1009 0.36733,0.36733 0.55297,4.40704 0.55297,12.12103 0.36733,7.71399 0.54738,17.81606 0.54738,30.30538 0.36733,12.48932 0.55296,26.817 0.55296,42.97965 v 48.48414 49.042961 c 0,15.795317 -0.18563,30.117411 -0.55296,42.974065 v 30.85862 c 0,8.081325 -0.18005,12.487264 -0.54738,13.22193 -0.36734,1.469332 -4.77785,2.57361 -13.22651,3.3082762 -8.08132,0.734666 -17.0824,1.2868053 -27.00039,1.6541383 -9.91799,0 -19.28474,-0.1859092 -28.10073,-0.5532422 -8.44866,-0.367333 -13.03922,-0.9194723 -13.77389,-1.6541383 -0.36733,-0.367333 -0.73301,-4.407041 -1.10034,-12.121033 -0.36734,-8.081326 -0.7386,-18.549621 -1.10594,-31.406275 -0.36733,-12.856653 -0.73301,-27.364657 -1.10034,-43.527307 0,-16.529985 -0.18564,-33.246545 -0.55297,-50.143865 v -49.59061 -43.52731 -30.85303 c 0,-7.714 0.18563,-11.75929 0.55297,-12.12663 0.36733,-0.36733 2.57259,-0.54765 6.61325,-0.54765 4.04066,-0.36733 9.18254,-0.55324 15.4272,-0.55324 H 173.563 c 3.67333,-0.18367 7.16684,-0.27383 10.47284,-0.27383 z m 116.80992,0 c 3.30599,0 6.42824,0.0902 9.36691,0.27383 6.24466,0 11.57217,0.18591 15.98016,0.55324 4.408,0.36733 6.7933,0.73356 7.16063,1.1009 0.36734,0.36733 0.55297,4.40704 0.55297,12.12103 0.36733,7.71399 0.55297,17.81606 0.55297,30.30538 0.36733,12.48932 0.54738,26.817 0.54738,42.97965 v 48.48414 49.042961 c 0,15.795317 -0.18005,30.117411 -0.54738,42.974065 v 30.85862 c 0,8.081325 -0.18564,12.487264 -0.55297,13.22193 -0.36733,1.469332 -4.77785,2.57361 -13.2265,3.3082762 -8.08133,0.734666 -17.07682,1.2868053 -26.99481,1.6541383 -9.91799,0 -19.28474,-0.1859092 -28.10073,-0.5532422 -8.44866,-0.367333 -13.04481,-0.9194723 -13.77947,-1.6541383 -0.36734,-0.367333 -0.73302,-4.407041 -1.10035,-12.121033 -0.36733,-8.081326 -0.73301,-18.549621 -1.10035,-31.406275 -0.36733,-12.856653 -0.7386,-27.364657 -1.10593,-43.527307 0,-16.529985 -0.18005,-33.246545 -0.54738,-50.143865 v -49.59061 -43.52731 -30.85303 c 0,-7.714 0.18005,-11.75929 0.54738,-12.12663 0.36733,-0.36733 2.57259,-0.54765 6.61325,-0.54765 4.04067,-0.36733 9.18254,-0.55324 15.4272,-0.55324 h 19.83976 c 3.67333,-0.18367 7.16126,-0.27383 10.46726,-0.27383 z m 116.80991,0 c 3.306,0 6.42825,0.0902 9.36691,0.27383 6.24466,0 11.57217,0.18591 15.98017,0.55324 4.40799,0.36733 6.79888,0.73356 7.16621,1.1009 0.36734,0.36733 0.54738,4.40704 0.54738,12.12103 0.36734,7.71399 0.55297,17.81606 0.55297,30.30538 0.36733,12.48932 0.55297,26.817 0.55297,42.97965 v 48.48414 49.042961 c 0,15.795317 -0.18564,30.117411 -0.55297,42.974065 v 30.85862 c 0,8.081325 -0.18563,12.487264 -0.55297,13.22193 -0.36733,1.469332 -4.77226,2.57361 -13.22091,3.3082762 -8.08133,0.734666 -17.0824,1.2868053 -27.00039,1.6541383 -9.91799,0 -19.28475,-0.1859092 -28.10074,-0.5532422 -8.44866,-0.367333 -13.03922,-0.9194723 -13.77388,-1.6541383 -0.36734,-0.367333 -0.7386,-4.407041 -1.10594,-12.121033 -0.36733,-8.081326 -0.73301,-18.549621 -1.10034,-31.406275 -0.36733,-12.856653 -0.73302,-27.364657 -1.10035,-43.527307 0,-16.529985 -0.18563,-33.246545 -0.55296,-50.143865 v -49.59061 -43.52731 -30.85303 c 0,-7.714 0.18563,-11.75929 0.55296,-12.12663 0.36733,-0.36733 2.57259,-0.54765 6.61325,-0.54765 4.04067,-0.36733 9.18254,-0.55324 15.4272,-0.55324 h 19.83417 c 3.67333,-0.18367 7.16126,-0.27383 10.46726,-0.27383 z m 116.8155,0 c 3.306,0 6.42825,0.0902 9.36691,0.27383 6.24466,0 11.57217,0.18591 15.98017,0.55324 4.40799,0.36733 6.7933,0.73356 7.16063,1.1009 0.36733,0.36733 0.55296,4.40704 0.55296,12.12103 0.36734,7.71399 0.54739,17.81606 0.54739,30.30538 0.36733,12.48932 0.55296,26.817 0.55296,42.97965 v 48.48414 49.042961 c 0,15.795317 -0.18563,30.117411 -0.55296,42.974065 v 30.85862 c 0,8.081325 -0.18005,12.487264 -0.54739,13.22193 -0.36733,1.469332 -4.77784,2.57361 -13.2265,3.3082762 -8.08132,0.734666 -17.0824,1.2868053 -27.00039,1.6541383 -9.91799,0 -19.28474,-0.1859092 -28.10073,-0.5532422 -8.44866,-0.367333 -13.03922,-0.9194723 -13.77389,-1.6541383 -0.36733,-0.367333 -0.73301,-4.407041 -1.10034,-12.121033 -0.36734,-8.081326 -0.7386,-18.549621 -1.10594,-31.406275 -0.36733,-12.856653 -0.73301,-27.364657 -1.10034,-43.527307 0,-16.529985 -0.18005,-33.246545 -0.54738,-50.143865 v -49.59061 -43.52731 -30.85303 c 0,-7.714 0.18004,-11.75929 0.54738,-12.12663 0.36733,-0.36733 2.57259,-0.54765 6.61325,-0.54765 4.04066,-0.36733 9.18254,-0.55324 15.4272,-0.55324 h 19.83417 c 3.67333,-0.18367 7.16684,-0.27383 10.47284,-0.27383 z m 120.25618,0 c 3.58149,0 7.02162,0.0902 10.32762,0.27383 6.61199,0 12.12513,0.18591 16.53313,0.55324 4.77533,0.36733 7.34627,0.73356 7.7136,1.1009 0.36733,0.36733 0.54738,4.40704 0.54738,12.12103 0.36733,7.71399 0.55296,17.81606 0.55296,30.30538 0.36734,12.48932 0.55297,26.817 0.55297,42.97965 v 48.48414 49.042961 c 0,15.795317 -0.18563,30.117411 -0.55297,42.974065 v 30.85862 c 0,8.081325 -0.18563,12.487264 -0.55296,13.22193 -0.36733,1.469332 -4.95789,2.57361 -13.77389,3.3082762 -8.81599,0.734666 -18.54842,1.2868053 -29.20108,1.6541383 -10.65265,0 -20.57072,-0.1859092 -29.75405,-0.5532422 -9.18332,-0.367333 -14.14515,-0.9194723 -14.87981,-1.6541383 -0.36734,-0.367333 -0.73302,-4.407041 -1.10035,-12.121033 -0.36733,-8.081326 -0.73301,-18.549621 -1.10035,-31.406275 -0.36733,-12.856653 -0.73301,-27.364657 -1.10034,-43.527307 0,-16.529985 -0.18564,-33.246545 -0.55297,-50.143865 v -49.59061 -43.52731 -30.85303 c 0,-7.714 0.18563,-11.75929 0.55297,-12.12663 0.36733,-0.36733 2.75263,-0.54765 7.16063,-0.54765 4.40799,-0.36733 9.91555,-0.55324 16.52754,-0.55324 h 20.94011 c 3.85699,-0.18367 7.57836,-0.27383 11.15986,-0.27383 z m 118.87655,0 c 3.306,0 6.42825,0.0902 9.36692,0.27383 6.24466,0 11.57216,0.18591 15.98016,0.55324 4.408,0.36733 6.7933,0.73356 7.16063,1.1009 0.36734,0.36733 0.55297,4.40704 0.55297,12.12103 0.36733,7.71399 0.55297,17.81606 0.55297,30.30538 0.36733,12.48932 0.54738,26.817 0.54738,42.97965 v 48.48414 49.042961 c 0,15.795317 -0.18005,30.117411 -0.54738,42.974065 v 30.85862 c 0,8.081325 -0.18564,12.487264 -0.55297,13.22193 -0.36733,1.469332 -4.77785,2.57361 -13.22651,3.3082762 -8.08132,0.734666 -17.07681,1.2868053 -26.9948,1.6541383 -9.91799,0 -19.28474,-0.1859092 -28.10073,-0.5532422 -8.44866,-0.367333 -13.04481,-0.9194723 -13.77947,-1.6541383 -0.36734,-0.367333 -0.73302,-4.407041 -1.10035,-12.121033 -0.36733,-8.081326 -0.73301,-18.549621 -1.10035,-31.406275 -0.36733,-12.856653 -0.7386,-27.364657 -1.10593,-43.527307 0,-16.529985 -0.18005,-33.246545 -0.54738,-50.143865 v -49.59061 -43.52731 -30.85303 c 0,-7.714 0.18005,-11.75929 0.54738,-12.12663 0.36733,-0.36733 2.57259,-0.54765 6.61325,-0.54765 4.04066,-0.36733 9.18254,-0.55324 15.4272,-0.55324 h 19.83976 c 3.67333,-0.18367 7.16126,-0.27383 10.46725,-0.27383 z m 116.80992,0 c 3.306,0 6.42825,0.0902 9.36691,0.27383 6.24466,0 11.57217,0.18591 15.98016,0.55324 4.408,0.36733 6.79889,0.73356 7.16622,1.1009 0.36734,0.36733 0.54738,4.40704 0.54738,12.12103 0.36734,7.71399 0.55297,17.81606 0.55297,30.30538 0.36733,12.48932 0.55297,26.817 0.55297,42.97965 v 48.48414 49.042961 c 0,15.795317 -0.18564,30.117411 -0.55297,42.974065 v 30.85862 c 0,8.081325 -0.18563,12.487264 -0.55297,13.22193 -0.36733,1.469332 -4.77226,2.57361 -13.22092,3.3082762 -8.08132,0.734666 -17.08239,1.2868053 -27.00038,1.6541383 -9.91799,0 -19.28475,-0.1859092 -28.10074,-0.5532422 -8.44866,-0.367333 -13.03922,-0.9194723 -13.77388,-1.6541383 -0.36734,-0.367333 -0.7386,-4.407041 -1.10594,-12.121033 -0.36733,-8.081326 -0.73301,-18.549621 -1.10034,-31.406275 -0.36734,-12.856653 -0.73302,-27.364657 -1.10035,-43.527307 0,-16.529985 -0.18563,-33.246545 -0.55297,-50.143865 v -49.59061 -43.52731 -30.85303 c 0,-7.714 0.18564,-11.75929 0.55297,-12.12663 0.36733,-0.36733 2.57259,-0.54765 6.61325,-0.54765 4.04066,-0.36733 9.18254,-0.55324 15.4272,-0.55324 h 19.83417 c 3.67333,-0.18367 7.16126,-0.27383 10.46726,-0.27383 z m -863.414786,12.39486 c -1.469332,0 -2.57196,0.55214 -3.306626,1.65414 -0.367333,0.73467 -0.552967,1.65304 -0.552967,2.75503 0,1.102 0.185634,2.20628 0.552967,3.30828 0.734666,0.73467 1.471613,0.91499 2.206279,0.54766 h 9.914292 20.387137 c 7.346659,0 14.142476,0.1859 20.387136,0.55324 h 10.472845 c 1.836664,0.36733 2.939293,-0.91727 3.306626,-3.85593 0.367333,-2.93867 -0.369615,-4.40918 -2.20628,-4.40918 H 77.140219 56.753082 c -6.979326,-0.36733 -13.58951,-0.55324 -19.83417,-0.55324 z m 116.809916,0 c -1.46933,0 -2.57196,0.55214 -3.30663,1.65414 -0.36733,0.73467 -0.54738,1.65304 -0.54738,2.75503 0,1.102 0.18005,2.20628 0.54738,3.30828 0.73467,0.73467 1.47162,0.91499 2.20628,0.54766 h 9.91988 20.38714 c 7.34666,0 14.14247,0.1859 20.38713,0.55324 h 10.46726 c 1.83667,0.36733 2.93929,-0.91727 3.30663,-3.85593 0.36733,-2.93867 -0.36962,-4.40918 -2.20628,-4.40918 H 193.95013 173.563 c -6.97933,-0.36733 -13.58951,-0.55324 -19.83417,-0.55324 z m 116.8155,0 c -1.46933,0 -2.57196,0.55214 -3.30663,1.65414 -0.36733,0.73467 -0.55296,1.65304 -0.55296,2.75503 0,1.102 0.18563,2.20628 0.55296,3.30828 0.73467,0.73467 1.46603,0.91499 2.2007,0.54766 h 9.91987 20.38714 c 7.34666,0 14.14248,0.1859 20.38714,0.55324 h 10.46726 c 1.83666,0.36733 2.93929,-0.91727 3.30662,-3.85593 0.36733,-2.93867 -0.36403,-4.40918 -2.20069,-4.40918 H 310.76563 290.3785 c -6.97933,-0.36733 -13.5951,-0.55324 -19.83976,-0.55324 z m 116.80991,0 c -1.46933,0 -2.57196,0.55214 -3.30662,1.65414 -0.36734,0.73467 -0.54738,1.65304 -0.54738,2.75503 0,1.102 0.18004,2.20628 0.54738,3.30828 0.73466,0.73467 1.47161,0.91499 2.20628,0.54766 h 9.91429 20.38714 c 7.34665,0 14.14247,0.1859 20.38713,0.55324 h 10.47285 c 1.83666,0.36733 2.93929,-0.91727 3.30662,-3.85593 0.36733,-2.93867 -0.36961,-4.40918 -2.20628,-4.40918 h -11.02022 -20.38714 c -6.97933,-0.36733 -13.58951,-0.55324 -19.83417,-0.55324 z m 116.80992,0 c -1.46933,0 -2.56638,0.55214 -3.30104,1.65414 -0.36734,0.73467 -0.55297,1.65304 -0.55297,2.75503 0,1.102 0.18563,2.20628 0.55297,3.30828 0.73466,0.73467 1.46602,0.91499 2.20069,0.54766 h 9.91988 20.38714 c 7.34665,0 14.14247,0.1859 20.38713,0.55324 h 10.46726 c 1.83667,0.36733 2.93929,-0.91727 3.30663,-3.85593 0.36733,-2.93867 -0.36962,-4.40918 -2.20628,-4.40918 h -11.02023 -20.38713 c -6.97933,-0.36733 -13.58951,-0.55324 -19.83417,-0.55324 z m 116.8155,0 c -1.46933,0 -2.57196,0.55214 -3.30663,1.65414 -0.36733,0.73467 -0.55296,1.65304 -0.55296,2.75503 0,1.102 0.18563,2.20628 0.55296,3.30828 0.73467,0.73467 1.47161,0.91499 2.20628,0.54766 h 10.46726 22.04045 c 8.08132,0 15.6085,0.1859 22.58783,0.55324 h 11.57319 c 1.83667,0.36733 2.93929,-0.91727 3.30663,-3.85593 0.36733,-2.93867 -0.36962,-4.40918 -2.20628,-4.40918 h -12.12057 -22.04045 c -7.714,-0.36733 -15.06113,-0.55324 -22.04045,-0.55324 z m 122.32282,0 c -1.46933,0 -2.57196,0.55214 -3.30663,1.65414 -0.36733,0.73467 -0.55296,1.65304 -0.55296,2.75503 0,1.102 0.18563,2.20628 0.55296,3.30828 0.73467,0.73467 1.46603,0.91499 2.20069,0.54766 h 9.91988 20.38714 c 7.34666,0 14.14248,0.1859 20.38714,0.55324 h 10.46725 c 1.83667,0.36733 2.9393,-0.91727 3.30663,-3.85593 0.36733,-2.93867 -0.36403,-4.40918 -2.20069,-4.40918 h -11.02023 -20.38713 c -6.97933,-0.36733 -13.5951,-0.55324 -19.83976,-0.55324 z m 116.80991,0 c -1.46933,0 -2.57196,0.55214 -3.30662,1.65414 -0.36734,0.73467 -0.54738,1.65304 -0.54738,2.75503 0,1.102 0.18004,2.20628 0.54738,3.30828 0.73466,0.73467 1.47161,0.91499 2.20628,0.54766 h 9.91429 20.38713 c 7.34666,0 14.14248,0.1859 20.38714,0.55324 h 10.47284 c 1.83667,0.36733 2.9393,-0.91727 3.30663,-3.85593 0.36733,-2.93867 -0.36961,-4.40918 -2.20628,-4.40918 H 900.3337 879.94656 c -6.97933,-0.36733 -13.58951,-0.55324 -19.83417,-0.55324 z m -576.89452,72.73179 c -2.204,0 -3.30663,1.29019 -3.30663,3.86152 0,5.50999 -0.37127,13.77532 -1.10593,24.79531 -0.36734,10.65266 -0.1817,21.30127 0.55296,31.95393 0.73467,10.65265 2.75429,20.02226 6.06029,28.10358 3.306,8.08133 8.81914,12.121037 16.53313,12.121037 8.81599,0 14.87486,-4.039707 18.18086,-12.121037 3.30599,-8.44866 5.14557,-17.99858 5.5129,-28.65124 0.73467,-11.01999 0.54904,-21.48828 -0.55296,-31.40627 -0.73467,-10.28532 -1.10035,-17.45196 -1.10035,-21.49262 -0.73467,-2.204 -2.38861,-3.30269 -4.95994,-3.30269 -2.204,0 -3.30663,1.2846 -3.30663,3.85593 0,4.04066 0.36569,10.83548 1.10035,20.38614 0.73467,9.55065 0.9203,19.28649 0.55297,29.20448 -0.36734,9.91799 -1.6556,18.72987 -3.85959,26.44386 -2.204,7.34666 -6.24325,10.65391 -12.12058,9.91924 -3.30599,-0.36733 -5.87693,-2.5703 -7.7136,-6.61097 -1.83666,-4.04066 -3.30497,-8.99874 -4.40697,-14.87606 -0.73466,-6.24466 -1.28598,-12.85916 -1.65331,-19.83849 -0.36733,-7.34666 -0.55297,-14.32179 -0.55297,-20.93379 0.36734,-6.61199 0.55297,-12.49403 0.55297,-17.63669 0.36733,-5.14266 0.54738,-8.63023 0.54738,-10.46689 -0.73467,-2.204 -2.38302,-3.30828 -4.95435,-3.30828 z m 126.17682,0 c -4.40799,0 -6.7933,1.47051 -7.16063,4.40917 -0.36733,2.57133 -0.55297,8.63369 -0.55297,18.18435 0.36734,9.18332 0.55297,19.09948 0.55297,29.75213 0.36733,10.28533 0.73301,19.83525 1.10035,28.65124 0.73466,8.816 1.28598,13.95998 1.65331,15.42931 0.73467,2.57133 1.83729,4.041844 3.30663,4.409177 1.46933,0.367333 3.12327,0.367333 4.95993,0 1.46934,-0.367333 3.85464,-1.285703 7.16064,-2.755037 3.30599,-1.83666 6.42825,-4.77768 9.36691,-8.81834 3.306,-4.04067 6.06257,-9.36497 8.26656,-15.97697 2.57133,-6.61199 3.85401,-14.87732 3.85401,-24.79531 0,-9.91799 -1.65394,-17.9974 -4.95994,-24.24206 -2.93866,-6.612 -6.42659,-11.57007 -10.46726,-14.87607 -3.67333,-3.67333 -7.16126,-6.06221 -10.46726,-7.16421 -3.30599,-1.46933 -5.51125,-2.20738 -6.61325,-2.20738 z m 233.62542,0 c -2.93867,0 -4.77824,0.55214 -5.51291,1.65414 -0.73466,0.73467 -1.28598,2.01927 -1.65331,3.85593 v 7.71745 16.53021 21.48703 c 0.36733,7.34666 0.55297,14.32738 0.55297,20.93938 0.36733,6.61199 0.55296,12.30253 0.55296,17.07786 0.36733,4.40799 0.73302,6.98278 1.10035,7.71745 0.73466,2.20399 1.83729,3.488594 3.30662,3.855927 1.83667,0.367333 3.67066,0.553242 5.50732,0.553242 1.102,0 3.49289,-0.371819 7.16622,-1.106485 3.67333,-0.734665 7.52694,-2.019264 11.56761,-3.855934 4.04066,-2.20399 7.53418,-5.32533 10.47284,-9.366 3.306,-4.04066 4.77431,-9.36497 4.40697,-15.97696 -0.73466,-8.44866 -3.67687,-14.33069 -8.81953,-17.63669 -5.14266,-3.67333 -10.28453,-6.05662 -15.42719,-7.15862 3.67333,-1.83666 6.79558,-4.41145 9.36691,-7.71745 2.93866,-3.67333 4.40697,-8.63141 4.40697,-14.87607 0,-4.77532 -1.28268,-8.62912 -3.85401,-11.56779 -2.20399,-3.30599 -4.77493,-5.69487 -7.7136,-7.1642 -2.93866,-1.83667 -5.87528,-3.12127 -8.81394,-3.85593 -2.93866,-0.73467 -5.14392,-1.10649 -6.61325,-1.10649 z m 112.95591,0 c -2.204,0 -3.30663,1.29019 -3.30663,3.86152 0,5.50999 -0.37127,13.77532 -1.10593,24.79531 -0.36734,10.65266 -0.1817,21.30127 0.55296,31.95393 0.73467,10.65265 2.75429,20.02226 6.06029,28.10358 3.306,8.08133 8.81914,12.121037 16.53313,12.121037 8.81599,0 14.87486,-4.039707 18.18086,-12.121037 3.30599,-8.44866 5.13998,-17.99858 5.50732,-28.65124 0.73466,-11.01999 0.55461,-21.48828 -0.54738,-31.40627 -0.73467,-10.28532 -1.10035,-17.45196 -1.10035,-21.49262 -0.73467,-2.204 -2.38861,-3.30269 -4.95994,-3.30269 -2.204,0 -3.30663,1.2846 -3.30663,3.85593 0,4.04066 0.36568,10.83548 1.10035,20.38614 0.73467,9.55065 0.9203,19.28649 0.55297,29.20448 -0.36734,9.91799 -1.6556,18.72987 -3.8596,26.44386 -2.20399,7.34666 -6.24324,10.65391 -12.12057,9.91924 -3.30599,-0.36733 -5.87693,-2.5703 -7.7136,-6.61097 -1.83666,-4.04066 -3.30497,-8.99874 -4.40697,-14.87606 -0.73466,-6.24466 -1.28598,-12.85916 -1.65331,-19.83849 -0.36733,-7.34666 -0.55297,-14.32179 -0.55297,-20.93379 0.36733,-6.61199 0.55297,-12.49403 0.55297,-17.63669 0.36733,-5.14266 0.54738,-8.63023 0.54738,-10.46689 -0.73467,-2.204 -2.38302,-3.30828 -4.95435,-3.30828 z m 126.17682,0 c -4.40799,0 -6.7933,1.47051 -7.16063,4.40917 -0.36733,2.57133 -0.55297,8.63369 -0.55297,18.18435 0.36734,9.18332 0.55297,19.09948 0.55297,29.75213 0.36733,10.28533 0.73301,19.83525 1.10035,28.65124 0.73466,8.816 1.28598,13.95998 1.65331,15.42931 0.73466,2.57133 1.83729,4.041844 3.30662,4.409177 1.46934,0.367333 3.11769,0.367333 4.95436,0 1.46933,-0.367333 3.86022,-1.285703 7.16622,-2.755037 3.30599,-1.83666 6.42824,-4.77768 9.36691,-8.81834 3.30599,-4.04067 6.06257,-9.36497 8.26656,-15.97697 2.57133,-6.61199 3.85401,-14.87732 3.85401,-24.79531 0,-9.91799 -1.65394,-17.9974 -4.95994,-24.24206 -2.93866,-6.612 -6.4266,-11.57007 -10.46726,-14.87607 -3.67333,-3.67333 -7.16126,-6.06221 -10.46726,-7.16421 -3.30599,-1.46933 -5.51125,-2.20738 -6.61325,-2.20738 z m -333.49446,0.41354 c -0.82649,0.2755 -1.51564,0.87551 -2.06664,1.79384 l -12.67353,34.71455 -15.4272,-32.51276 c -1.102,-1.46933 -3.12162,-1.64965 -6.06029,-0.54765 -2.57133,0.73467 -3.12264,2.19959 -1.65331,4.40358 l 20.38714,39.12373 2.20628,49.59062 c 0.73466,1.83666 2.20297,2.755031 4.40697,2.755031 2.204,0 3.30662,-0.918371 3.30662,-2.755031 -0.36733,-8.44866 -0.91864,-17.08022 -1.65331,-25.89621 -0.36733,-8.81599 -0.55297,-17.63346 -0.55297,-26.44945 l 15.4272,-40.22462 c 0.73467,-1.83666 -0.18233,-3.12126 -2.75366,-3.85593 -1.102,-0.36733 -2.0668,-0.4152 -2.8933,-0.1397 z m -345.88871,0.69295 -36.91468,2.75503 c -2.93867,0.36733 -4.41256,1.83225 -4.41256,4.40358 0.36733,2.204 2.02127,3.12237 4.95994,2.75504 l 13.77388,-1.1009 1.10593,85.40607 c 0,2.57133 1.10263,3.85593 3.30663,3.85593 2.57133,0 4.21969,-1.09869 4.95435,-3.30269 l -1.10034,-86.50696 14.32685,-1.10649 c 2.57133,-0.36733 3.67396,-1.65193 3.30662,-3.85593 0,-2.57133 -1.10263,-3.67002 -3.30662,-3.30268 z m -132.857108,1.30766 c -1.239749,-0.0459 -2.506901,0.0654 -3.792566,0.34089 -5.142662,0.73466 -9.918855,3.48977 -14.326851,8.2651 -4.040663,4.77533 -5.508972,10.47145 -4.406973,17.08345 0.734666,5.50999 2.754289,10.28216 6.060286,14.32282 3.305997,3.67333 6.799515,7.16649 10.472844,10.47249 4.040663,3.30599 7.528595,6.79356 10.467259,10.46689 3.305997,3.306 5.32562,7.34571 6.060286,12.12104 0.734666,5.14266 0.368985,9.55418 -1.100347,13.22751 -1.101999,3.306 -4.038617,5.32306 -8.813946,6.05773 -2.571331,0.36733 -4.596539,-0.36513 -6.065871,-2.2018 -1.469332,-1.83666 -2.566375,-4.03963 -3.301041,-6.61096 -0.367333,-2.57133 -0.738599,-5.32644 -1.105932,-8.2651 v -7.16421 c 0,-2.204 -1.468309,-3.30828 -4.406973,-3.30828 -2.571331,0 -3.859592,1.29019 -3.859592,3.86152 0,3.67333 0.185633,7.52713 0.552966,11.56779 0.367333,3.67333 1.284328,6.98058 2.75366,9.91924 1.469332,2.93867 3.494541,5.32755 6.065871,7.164211 2.938664,1.469331 6.792277,2.021471 11.567606,1.654138 6.24466,-0.734666 10.655173,-3.861589 13.226504,-9.371589 2.571331,-5.50999 3.488326,-11.38644 2.75366,-17.6311 -0.734666,-5.87733 -2.754289,-10.6495 -6.060286,-14.32283 -3.305997,-4.04066 -6.799515,-7.53382 -10.472844,-10.47248 -3.305997,-3.306 -6.608296,-6.42734 -9.914293,-9.366 -3.305996,-2.93866 -5.32562,-6.42623 -6.060286,-10.46689 -1.101998,-5.51 -0.550684,-9.92153 1.653313,-13.22752 2.203998,-3.67333 4.774935,-5.8763 7.713599,-6.61097 3.305997,-0.73466 6.242615,0.36962 8.813946,3.30828 2.938664,2.57133 4.406973,7.52941 4.406973,14.87607 0,2.57133 1.288261,3.85593 3.859592,3.85593 2.938664,0 4.406973,-1.09869 4.406973,-3.30269 0.367333,-10.65266 -1.837924,-17.81929 -6.613252,-21.49262 -3.305997,-3.0305 -6.815039,-4.61231 -10.534285,-4.75006 z m 341.688408,5.85095 c 0.73467,-0.36733 2.20298,0.18481 4.40697,1.65414 2.204,1.46933 4.58931,3.85821 7.16064,7.16421 2.57133,3.306 4.77658,7.71193 6.61325,13.22193 2.204,5.14266 3.49226,11.39093 3.85959,18.73759 0.36733,7.34666 -0.36961,13.77524 -2.20628,19.28524 -1.83666,5.14266 -4.04192,9.5486 -6.61325,13.22193 -2.204,3.30599 -4.5893,5.87519 -7.16063,7.71186 -2.204,1.46933 -3.49226,2.02147 -3.85959,1.65414 -0.73467,-0.36734 -1.46603,-4.77328 -2.2007,-13.22193 -0.36733,-8.44866 -0.7386,-17.63236 -1.10593,-27.55035 v -28.10358 c 0,-8.81599 0.37127,-13.40784 1.10593,-13.77518 z m 472.75815,0 c 0.73467,-0.36733 2.20298,0.18481 4.40697,1.65414 2.204,1.46933 4.58931,3.85821 7.16064,7.16421 2.57133,3.306 4.77658,7.71193 6.61325,13.22193 2.204,5.14266 3.48667,11.39093 3.854,18.73759 0.36734,7.34666 -0.36402,13.77524 -2.20069,19.28524 -1.83666,5.14266 -4.04192,9.5486 -6.61325,13.22193 -2.204,3.30599 -4.5893,5.87519 -7.16063,7.71186 -2.204,1.46933 -3.49226,2.02147 -3.8596,1.65414 -0.73466,-0.36734 -1.46602,-4.77328 -2.20069,-13.22193 -0.36733,-8.44866 -0.7386,-17.63236 -1.10593,-27.55035 v -28.10358 c 0,-8.81599 0.37126,-13.40784 1.10593,-13.77518 z m -237.20573,0.27942 c 1.653,0 4.12833,0.82262 7.43432,2.47562 4.408,1.83666 6.79889,6.24819 7.16622,13.22752 0.36733,5.14266 -1.65229,9.36828 -6.06028,12.67427 -4.408,3.306 -8.08157,5.50897 -11.02023,6.61097 -0.36733,-9.18333 -0.55297,-17.08242 -0.55297,-23.69442 0.36734,-6.97932 0.91865,-10.6528 1.65332,-11.02013 0.36733,-0.18367 0.82862,-0.27383 1.37962,-0.27383 z m -2.47997,43.80113 c 6.24466,0.36734 12.1179,2.20408 17.62789,5.51007 5.87733,2.93867 8.99958,7.53051 9.36691,13.77517 0,3.306 -0.73136,6.24702 -2.20069,8.81835 -1.46933,2.57133 -3.48896,4.7743 -6.06029,6.61096 -2.57133,1.83667 -5.3279,3.30718 -8.26656,4.40918 -2.57133,0.73466 -5.14227,1.10089 -7.7136,1.10089 -0.73467,0 -1.28598,-4.0397 -1.65331,-12.12103 -0.36734,-8.44866 -0.73302,-17.81826 -1.10035,-28.10359 z M 88.71341,-31.407093 c -1.101999,0 -4.595517,0.18591 -10.472845,0.553243 -5.877327,0 -12.301877,0.18032 -19.281204,0.547653 h -19.28679 c -5.877327,0 -9.550893,-0.18032 -11.020224,-0.547653 -1.469332,-0.367333 -2.386327,0.551036 -2.75366,2.755034 -0.367333,2.203998 0.549662,3.668918 2.75366,4.403584 1.101998,0.367333 4.589931,0.739152 10.467258,1.106485 h 19.839756 c 7.34666,-0.367333 14.142476,-0.553243 20.387137,-0.553243 6.24466,-0.367333 9.918226,-0.553242 11.020225,-0.553242 1.836664,-0.734666 2.753659,-2.199586 2.753659,-4.403584 0,-2.203998 -1.468309,-3.308277 -4.406972,-3.308277 z m 116.80991,0 c -1.10199,0 -4.58993,0.18591 -10.46725,0.553243 -5.87733,0 -12.30747,0.18032 -19.28679,0.547653 h -19.28679 c -5.87733,0 -9.5509,-0.18032 -11.02023,-0.547653 -1.46933,-0.367333 -2.38633,0.551036 -2.75366,2.755034 -0.36733,2.203998 0.54966,3.668918 2.75366,4.403584 1.102,0.367333 4.59552,0.739152 10.47285,1.106485 h 19.83417 c 7.34666,-0.367333 14.14247,-0.553243 20.38713,-0.553243 6.24466,-0.367333 9.91823,-0.553242 11.02023,-0.553242 1.83666,-0.734666 2.75366,-2.199586 2.75366,-4.403584 0,-2.203998 -1.46831,-3.308277 -4.40698,-3.308277 z m 116.80992,0 c -1.102,0 -4.58993,0.18591 -10.46726,0.553243 -5.87733,0 -12.30746,0.18032 -19.28679,0.547653 h -19.2812 c -5.87733,0 -9.5509,-0.18032 -11.02023,-0.547653 -1.46933,-0.367333 -2.39191,0.551036 -2.75924,2.755034 -0.36734,2.203998 0.55524,3.668918 2.75924,4.403584 1.102,0.367333 4.58993,0.739152 10.46726,1.106485 h 19.83417 c 7.34666,-0.367333 14.14248,-0.553243 20.38714,-0.553243 6.24466,-0.367333 9.91822,-0.553242 11.02022,-0.553242 1.83667,-0.734666 2.75366,-2.199586 2.75366,-4.403584 0,-2.203998 -1.46831,-3.308277 -4.40697,-3.308277 z m 116.8155,0 c -1.102,0 -4.59552,0.18591 -10.47285,0.553243 -5.87732,0 -12.30187,0.18032 -19.2812,0.547653 H 390.1079 c -5.87733,0 -9.55089,-0.18032 -11.02022,-0.547653 -1.46934,-0.367333 -2.38633,0.551036 -2.75366,2.755034 -0.36734,2.203998 0.54966,3.668918 2.75366,4.403584 1.10199,0.367333 4.58993,0.739152 10.46725,1.106485 h 19.83976 c 7.34666,-0.367333 14.14248,-0.553243 20.38714,-0.553243 6.24466,-0.367333 9.91822,-0.553242 11.02022,-0.553242 1.83667,-0.734666 2.75366,-2.199586 2.75366,-4.403584 0,-2.203998 -1.46831,-3.308277 -4.40697,-3.308277 z m 116.80991,0 c -1.102,0 -4.58993,0.18591 -10.46726,0.553243 -5.87732,0 -12.30746,0.18032 -19.28678,0.547653 h -19.28679 c -5.87733,0 -9.5509,-0.18032 -11.02023,-0.547653 -1.46933,-0.367333 -2.38633,0.551036 -2.75366,2.755034 -0.36733,2.203998 0.54966,3.668918 2.75366,4.403584 1.102,0.367333 4.59552,0.739152 10.47284,1.106485 h 19.83418 c 7.34665,-0.367333 14.14247,-0.553243 20.38713,-0.553243 6.24466,-0.367333 9.91823,-0.553242 11.02023,-0.553242 1.83666,-0.734666 2.75366,-2.199586 2.75366,-4.403584 0,-2.203998 -1.46831,-3.308277 -4.40698,-3.308277 z m 122.32282,0 c -1.102,0 -4.96119,0.18591 -11.57319,0.553243 -6.24466,0 -13.22052,0.18032 -20.93451,0.547653 h -20.94011 c -6.61199,0 -10.65124,-0.18032 -12.12057,-0.547653 -1.46933,-0.367333 -2.38633,0.551036 -2.75366,2.755034 -0.36733,2.203998 0.54966,3.668918 2.75366,4.403584 1.102,0.367333 4.95561,0.739152 11.56761,1.106485 h 22.04045 c 7.71399,-0.367333 14.88107,-0.553243 21.49306,-0.553243 6.97933,-0.367333 11.01858,-0.553242 12.12058,-0.553242 1.83666,-0.734666 2.75366,-2.199586 2.75366,-4.403584 0,-2.203998 -1.46831,-3.308277 -4.40698,-3.308277 z m 116.80992,0 c -1.102,0 -4.58993,0.18591 -10.46726,0.553243 -5.87733,0 -12.30746,0.18032 -19.28679,0.547653 h -19.2812 c -5.87733,0 -9.5509,-0.18032 -11.02023,-0.547653 -1.46933,-0.367333 -2.39191,0.551036 -2.75925,2.755034 -0.36733,2.203998 0.55525,3.668918 2.75925,4.403584 1.102,0.367333 4.58993,0.739152 10.46726,1.106485 h 19.83417 c 7.34666,-0.367333 14.14248,-0.553243 20.38714,-0.553243 6.24466,-0.367333 9.91822,-0.553242 11.02022,-0.553242 1.83667,-0.734666 2.75366,-2.199586 2.75366,-4.403584 0,-2.203998 -1.46831,-3.308277 -4.40697,-3.308277 z m 116.8155,0 c -1.102,0 -4.59552,0.18591 -10.47285,0.553243 -5.87732,0 -12.30187,0.18032 -19.2812,0.547653 h -19.28679 c -5.87733,0 -9.55089,-0.18032 -11.02023,-0.547653 -1.46933,-0.367333 -2.38632,0.551036 -2.75365,2.755034 -0.36734,2.203998 0.54966,3.668918 2.75365,4.403584 1.102,0.367333 4.58994,0.739152 10.46726,1.106485 h 19.83976 c 7.34666,-0.367333 14.14248,-0.553243 20.38714,-0.553243 6.24466,-0.367333 9.91822,-0.553242 11.02022,-0.553242 1.83667,-0.734666 2.75366,-2.199586 2.75366,-4.403584 0,-2.203998 -1.46831,-3.308277 -4.40697,-3.308277 z" />
      <text
         font-family="'(Book+Ends)', '(Book+Ends)_MSFontService', sans-serif"
         font-weight="400"
         font-size="551px"
         transform="translate(1033.6,534)"
         id="text3">)</text>
    </g>
    <path
       style="opacity:1;fill:#000000;fill-opacity:0;stroke:#000000;stroke-width:2.50707;stroke-dasharray:none;stroke-opacity:1"
       d="M 34.065576,324.42652 H 456.92993 l -0.72037,25.57754 -421.423601,1.50457 z"
       id="path7" />
    <path
       style="opacity:1;fill:#000000;fill-opacity:0;stroke:#000000;stroke-width:2.5;stroke-dasharray:none;stroke-opacity:1"
       d="m 456.87937,324.56201 32.43852,-32.35013"
       id="path8" />
    <path
       style="opacity:1;fill:#000000;fill-opacity:0;stroke:#000000;stroke-width:2.5517;stroke-dasharray:none;stroke-opacity:1"
       d="m 456.45568,350.26471 33.28591,-32.84386"
       id="path9" />
    <path
       style="opacity:1;fill:#000000;fill-opacity:0;stroke:#000000;stroke-width:2.51969;stroke-dasharray:none;stroke-opacity:1"
       d="m 489.90346,291.41528 -0.44151,26.87225"
       id="path10" />
    <path
       style="opacity:1;fill:#000000;fill-opacity:0;stroke:#000000;stroke-width:2.5;stroke-dasharray:none;stroke-opacity:1"
       d="M 33.764812,324.11393 57.705643,303.75491"
       id="path11"
       sodipodi:nodetypes="cc" />
    <path
       style="opacity:1;fill:#000000;fill-opacity:0;stroke:#000000;stroke-width:2.5;stroke-dasharray:none;stroke-opacity:1"
       d="m 491.13296,292.69555 -41.18399,0.17919"
       id="path12"
       sodipodi:nodetypes="cc" />
  </g>
</svg>
